<?xml version="1.0" standalone="no"?>
<!DOCTYPE svg PUBLIC "-//W3C//DTD SVG 20010904//EN"
 "http://www.w3.org/TR/2001/REC-SVG-20010904/DTD/svg10.dtd">
<svg version="1.0" xmlns="http://www.w3.org/2000/svg"
 width="904.000000pt" height="904.000000pt" viewBox="0 0 904.000000 904.000000"
 preserveAspectRatio="xMidYMid meet">
<metadata>
Created by potrace 1.14, written by Peter Selinger 2001-2017
</metadata>
<g transform="translate(0.000000,904.000000) scale(0.100000,-0.100000)"
fill="#000000" stroke="none">
<path d="M0 4520 l0 -4520 4520 0 4520 0 0 4520 0 4520 -4520 0 -4520 0 0
-4520z m5460 2892 c0 -7 -118 -648 -164 -892 -19 -96 -32 -166 -171 -915 -64
-341 -124 -667 -135 -725 -39 -209 -260 -1397 -275 -1475 -8 -44 -28 -152 -45
-240 -16 -88 -95 -511 -175 -940 -80 -429 -155 -831 -167 -892 l-21 -113 -348
0 c-274 0 -349 3 -349 13 0 10 36 206 180 977 60 323 253 1361 271 1455 11 61
24 130 29 155 5 25 16 86 25 135 9 50 23 124 31 165 8 41 55 293 104 560 50
267 97 521 105 565 65 345 267 1432 325 1745 39 212 74 395 77 408 l5 22 349
0 c192 0 349 -4 349 -8z m-2383 -1324 c-4 -13 -20 -102 -37 -198 -16 -96 -39
-224 -50 -285 -11 -60 -27 -153 -36 -204 -9 -52 -19 -104 -23 -114 -4 -11
-135 -98 -303 -201 -163 -99 -517 -316 -786 -481 -365 -223 -487 -303 -479
-311 7 -6 129 -81 272 -165 1133 -672 1288 -766 1295 -784 4 -11 38 -191 74
-400 37 -209 69 -388 72 -397 3 -10 1 -18 -4 -18 -6 0 -81 40 -169 89 -234
131 -1594 889 -1926 1074 l-287 159 0 442 0 441 1188 687 c653 377 1191 687
1196 687 4 1 6 -9 3 -21z m3185 -124 c295 -171 722 -417 1358 -784 250 -144
511 -295 580 -335 69 -40 140 -80 158 -89 l32 -17 -2 -445 -3 -445 -315 -175
c-173 -97 -592 -330 -930 -519 -1006 -561 -1122 -625 -1129 -625 -9 0 135 821
146 831 7 7 337 203 1228 732 176 104 325 194 332 201 9 8 -50 49 -240 165
-139 85 -418 256 -622 381 -203 125 -445 273 -537 329 l-166 102 -11 62 c-33
185 -42 232 -61 342 -12 66 -25 143 -30 170 -24 142 -41 232 -46 248 -3 9 -3
17 0 17 2 0 118 -66 258 -146z"/>
</g>
</svg>
